/* XPM */
static char *result[] = {
/* columns rows colors chars-per-pixel */
"64 64 175 2 ",
"   c #141414",
".  c #1A1A1A",
"X  c #222222",
"o  c #2C2C2C",
"O  c #333333",
"+  c #3D3930",
"@  c #3B3B3B",
"#  c #444444",
"$  c #4B4B4B",
"%  c #5D5544",
"&  c #545454",
"*  c #5C5C5C",
"=  c #6D454F",
"-  c #7C4A57",
";  c #656158",
":  c #6D6451",
">  c #636363",
",  c #6D6D6D",
"<  c #746F63",
"1  c #7A756B",
"2  c #737373",
"3  c #7C7C7C",
"4  c #8B636D",
"5  c #867B63",
"6  c #976F79",
"7  c #916973",
"8  c #827679",
"9  c #97717B",
"0  c #A86777",
"q  c #A96D7C",
"w  c #AC707F",
"e  c #968A6F",
"r  c #8C8576",
"t  c #8E897F",
"y  c #98907D",
"u  c #9F9275",
"i  c #A79A7B",
"p  c #BE7588",
"a  c #B97D8C",
"s  c #7C9D9F",
"d  c #6ACFD3",
"f  c #6DF4F9",
"g  c #868686",
"h  c #8C8984",
"j  c #8C8C8C",
"k  c #8D8483",
"l  c #9E8E8A",
"z  c #908C83",
"x  c #91908E",
"c  c #9F998D",
"v  c #9C9689",
"b  c #949494",
"n  c #9A9694",
"m  c #9D9A93",
"M  c #9C9B9B",
"N  c #A29A86",
"B  c #A59491",
"V  c #A49C96",
"C  c #A29C9B",
"Z  c #AF9D99",
"A  c #AFA181",
"S  c #A8A08E",
"D  c #B7A987",
"F  c #A4A097",
"G  c #ACA492",
"H  c #A7A39A",
"J  c #A9A39C",
"K  c #ADA89E",
"L  c #B4AC9A",
"P  c #BAB19E",
"I  c #BDB196",
"U  c #87A8AA",
"Y  c #A3A3A3",
"T  c #ADA4A2",
"R  c #AFABA2",
"E  c #ABABAB",
"W  c #B4A6A3",
"Q  c #B4ABA6",
"!  c #BFACA7",
"~  c #BAAEAB",
"^  c #BBB4A2",
"/  c #B6B2AD",
"(  c #BCB6AA",
")  c #B5B4B1",
"_  c #BAB4B3",
"`  c #BEBAB2",
"'  c #BCBBBB",
"]  c #D48498",
"[  c #C0B08E",
"{  c #C8B894",
"}  c #C3B79C",
"|  c #D0BF9A",
" . c #C9A1AB",
".. c #C7BBA2",
"X. c #C9BDA2",
"o. c #C8B3AF",
"O. c #CEA6B0",
"+. c #D3ABB5",
"@. c #DEA2B1",
"#. c #C2B6B3",
"$. c #C1BCB5",
"%. c #C4BDBB",
"&. c #CBBFBC",
"*. c #CAB6B1",
"=. c #D0BBB6",
"-. c #CDC1A6",
";. c #CBC1AC",
":. c #D6C7A0",
">. c #D8C7A0",
",. c #DECEA7",
"<. c #D2C6AA",
"1. c #D5C9AE",
"2. c #DED1AD",
"3. c #C4C0B7",
"4. c #CEC6B4",
"5. c #C5C1BC",
"6. c #CBC6BD",
"7. c #D0C0BC",
"8. c #D8C2BD",
"9. c #D5CDBB",
"0. c #DDD0B4",
"q. c #DAD0BC",
"w. c #E1CEA7",
"e. c #E5D6AD",
"r. c #E9D6AD",
"t. c #E6D9B3",
"y. c #EDDDB3",
"u. c #E3DBBA",
"i. c #F3E5B9",
"p. c #91F7FA",
"a. c #C5C4C3",
"s. c #CBC6C4",
"d. c #CEC9C4",
"f. c #CCCBCB",
"g. c #D2C4C1",
"h. c #D2CAC4",
"j. c #DCC9C4",
"k. c #D4CCCA",
"l. c #DBCDCA",
"z. c #DDD5C3",
"x. c #D6D2C9",
"c. c #DBD3CD",
"v. c #D3D3D2",
"b. c #DBD4D2",
"n. c #DED9D2",
"m. c gray86",
"M. c #E0CAC4",
"N. c #E2DAC6",
"B. c #E2D1CD",
"V. c #E9D1CC",
"C. c #E3DBC9",
"Z. c #E1D5D2",
"A. c #E4DBD6",
"S. c #EDDBD6",
"D. c #EADEDB",
"F. c #E5D9D6",
"G. c #F1D9D3",
"H. c #EAE1CD",
"J. c #F4E8C0",
"K. c #F9EEC4",
"L. c #F4E8C8",
"P. c #FFF7CC",
"I. c #EDE1DE",
"U. c #F4E2DD",
"Y. c #F0E8D2",
"T. c #FFF9DA",
"R. c #E1E1E1",
"E. c #EEE4E1",
"W. c gray92",
"Q. c #F2E5E3",
"!. c #F5E9E6",
"~. c #F7EBE8",
"^. c #F6F6F6",
"/. c #FDFDFD",
"(. c None",
/* pixels */
"(.(.(.(.(.(.(.(.(.(.(.(.(.(._ g g g g g g g g g g g g g g g g j g g g g g g E 3 (.(.(.(.(.(.(.(.(.(.(.(.(.(.(.(.(.(.(.(.(.(.(.(.",
"(.(.(.(.(.(.(.(.(.(.(.(.(.) g g g g g g g g g g g j g g g g g g g g g g g g g g 3 g (.(.(.(.(.(.(.(.(.(.(.(.(.(.(.(.(.(.(.(.(.(.",
"(.(.(.(.(.(.(.(.(.(.(.(.' Y g g g g g g g g g g g g g g g g g g g g g g g g g g g g g 3 (.(.(.(.(.(.(.(.(.(.(.(.(.(.(.(.(.(.(.(.",
"(.(.(.(.(.(.(.(.(.(.(.m.E g g g g j g g g g g g g g g g g g g g g g g g g g g g g g g g $ (.(.(.(.(.(.(.(.(.(.(.(.(.(.(.(.(.(.(.",
"(.(.(.(.(.(.(.(.(.(.(.) g g g g g g g g g g g g g g g g g j g g g g g g g g g g g g g g g o (.(.(.(.(.(.(.(.(.(.(.(.(.(.(.(.(.(.",
"(.(.(.(.(.(.(.(.(.(.s g g g g g g g g g g g g g g g g g g g g g g g g g g g g g g g g g g g $ (.(.(.(.(.(.(.(.(.(.(.(.(.(.(.(.(.",
"(.(.(.(.(.(.(.(.(.Y g g g g g g g g g g g g g g g g g g g g g g g g g g g g g g g g g g g g M E (.(.(.(.(.(.(.(.(.(.(.(.(.(.(.(.",
"(.(.(.(.(.(.(.(.(.' g g g g g g g g g g g g g g g g g g g g g g g g g g g g j g g g g g g g g o (.(.(.(.(.(.(.(.(.(.(.(.(.(.(.(.",
"(.(.(.(.(.(.(.(.g g g g g g g g g g g g g g g g h g g g g g g g g g g g g g g g g g g g g g g Y (.(.(.(.(.(.(.(.(.(.(.(.(.(.(.(.",
"(.(.(.(.(.(.(.f.Y g g g g g g g g g g g g g g g ' ' g g g g g g g g g g g j g g g g g g g g g g * (.(.(.(.(.(.(.(.(.(.(.(.(.(.(.",
"(.(.(.(.(.(.(.b g g g g g g g g g g g j 3 , M a.) a._ j h b j g $ o 2 g E ' g g g g g g j g g g * (.(.(.(.(.(.(.(.(.(.(.(.(.(.(.",
"(.(.(.(.(.(.' Y g g g g g g g M E x ' ) / ) / ) / ) ) ) ) / / _ ) ) ) ) ) 5.m $ j g g g g g g g Y ) (.(.(.(.(.(.(.(.(.(.(.(.(.(.",
"(.(.(.(.(.(.j g g g g g g ' Y v.) ) / ) a.b g & $ $ > j Y ) ) ) ) ) ) ) ( ) ) ) a.@ b g g g g g g # (.(.(.(.(.(.(.(.(.(.(.(.(.(.",
"(.(.(.(.(.(.b g g g g ' ' ) / _ ) x.2 g 4.{ { { { { { A.! k & & 6.) ) ) ) ) ( ) ) ) ' > g g g g g , (.(.(.(.(.(.(.(.(.(.(.(.(.(.",
"(.(.(.(.(.a.g g g ' a.) ) ) ) ' > 9.{ { { { { { { { { f.! ! =.=.5.> & ' ) / ) ) ) ) ) 6.2 g g g g E (.(.(.(.(.(.(.(.(.(.(.(.(.(.",
"(.(.(.(.(.a.g g ) a.) ) / ) 2 1.{ { { { { { { { { { { E 8.M.M.j.M { { ^ O & a.) ) ) ) ) , g g g g g M (.(.(.(.(.(.(.(.(.(.(.(.(.",
"(.(.(.(.(.E g f.) ) ) a., -.{ { { { { { { { { { { { { a.S.G.G.G.U.Y { { h.m.> Y ) / ) ) ) x ' g g g * (.(.(.(.(.(.(.(.(.(.(.(.(.",
"(.(.(.(.(.' Y ) ) / E R { { { { { { z.{ { -.H.:.{ { { ;.G.G.G.G.G.G.M / z.1.Y f.m ) ) _ ) & 1.' g g M (.(.(.(.(.(.(.(.(.(.(.(.(.",
"(.(.(.(.(.j _ / / 3 <.{ { { { { { ' R.{ { s.f.:.{ { e.{ Z.G.G.G.G.G.G.G.U.#.C 3 & ' ) ) # 1.{ { b g M (.(.(.(.(.(.(.(.(.(.(.(.(.",
"(.(.(.(.M ) ) 5.j | { e { { { <.' G.f.{ E S.S.m.t.{ :.,.) G.G.G.G.G.G.G.G.%.E , m.O * 3 } { { { { n a.(.(.(.(.(.(.(.(.(.(.(.(.(.",
"(.(.(.v.' ) f.K { { i z.{ { A.s.E.W g * * > , , 3 H.{ :.j G.G.Q.~ 3 * m 0.{ { Z ..{ $ { > G { { { { X.3 (.(.(.(.(.(.(.(.(.(.(.(.",
"(.(.(.) ) E c.{ { i E /.n.f.I.3 <.{ W.c.{ { { { 9.R ,.:.n.G.G._ { { { { { { { { $ { { { { 4.X 1.{ { { { g (.(.(.(.(.(.(.(.(.(.(.",
"(.(.) / E -.{ { { ^ ' n Q.S.G.G.j z.m.{ { { { { { Q 6.>.t.s.G.G.L { { { [ [ { { -.Z.3.{ { { { 2 h { { { { 3 (.(.(.(.(.(.(.(.(.(.",
"(.) a.) s.{ { { D ' E ^.Y U.G.~.M 4.v.E Y a.s.E M 5.Y M { M G.G.j L Y j s g g 3 ) 2 M { { { { { ..X { { { { & (.(.(.(.(.(.(.(.(.",
"(.(.f.(.* { { { D ^ U.G.E.b.d.m.!.G.G.G.G.G.G.G.G.Q.W.) , ) S.b.# M ' s U > #.G.G.G.a.* { { e.{ { {   { { { <.Y (.(.(.(.(.(.(.(.",
"(.(./.(.L { { { N I G.G.Z.G.G.E S.G.G.G.G.Y * ) 2 f /./.2 j.k.Y a./.3 /.f ^./._ , b.G.E.2 { >.C { { { o { { { 2 (.(.(.(.(.(.(.(.",
"(.(.(., { { { { I ..G.G.l.G.G.Z.G.G.G.G.2 /./.W.p.d m.E o Q.G.G.Y ) R.g R.f.& C o.G.G.b @ & { | K | e.^ / { { { g (.(.(.(.(.(.(.",
"(.(.(.x { { { { { c U.G.g.G.G.I.G.G.G.G.b.3 ) a.E $ C B * G.G.G.g.=.l ' _ B =.M.G.G.G.b 3 G.O 1., e.e.P.. { { { h (.(.(.(.(.(.(.",
"(.(.(.> { { { { { : Z.M.f.G.G.U.~.G.G.G.V.=.V.G.G.l G.G.& F.G.G.a.G.V.G.G.G.G.G.G.G.G.E g G.G.n 2 :.e.| } L { { { @ (.(.(.(.(.(.",
"(.(.(.& { { { { { 5 _ *.) G.G.S.l.G.G.G.G.G.V.G.V.G.G.G.$ Q.G.G.x G.G.G.G.G.G.G.G.G.G.n j G.G.G.G.3 ` ,.|   { { { <.j (.(.(.(.(.",
"(.(.(.> { { { { { e 2 G.M G.G.I.f.G.G.G.G.G.G.G.G.G.G.G.# G.G.G.Y G.G.G.G.G.G.G.G.G._ b.V G.G.G.G.y { x.{ ; { { { { g (.(.(.(.(.",
"(.(.(.c { { { { { e * G.M G.G.G.n S.G.G.G.G.G.G.G.G.G.G.& G.G.G.D.Q.G.G.G.G.G.G.G.T * G.J W G.G.G.< { { { { 1 { { { { O (.(.(.(.",
"(.(.(.G { { { { { I B G.) G.G.G.G.' _ U.G.G.G.G.G.G.G.%.g G.G.G.G.s.G.G.G.G.G.G.j , S.G.#.B G.G.G.r { { { { X { { { { 1.g (.(.(.",
"(.(./.z.{ { { { { { r Q.b.G.G.G.G.G.G.I.~ E E Y > > M D._ G.G.G.G.) G.G.G.G.G.# , G.G.G.g.B G.G.G.t { { { { 1.h { { { { F (.(.(.",
"(.(.g { { { { { { { 5 ' D.Q.G.G.G.G.G.G.G.G.G.M G.G.G.E.U.G.G.G.S.s.U.G.a.& 2 G.G.G.G.G.F.B G.G.U.^ { { { { { . { { { { { @ (.(.",
"(.(.t { { { { { { { { x G.B.G.G.G.G.G.G.G.G.Y G.G.G.G.' U.Q.G.5.M G.Q E W G.> U.G.G.G.G.Q.G.G.G.g.e { { { { { 1.v { { { { { , (.",
"(.(.> { { { { { { { { b A.v.S.G.G.G.G.G.G.b.U.G.G.G.G.f.s.G.G.G.G.G.G.G.G.G.G.2 G.G.G.G.!.G.G.G.) i { { { { { {   { { { { { 6.' ",
"(.(.M { { { { { { { { { ..Y G.G.G.G.G.G.G.f.G.G.G.G.G.G.%.* X O 3 g 2 #   + > &.S.G.G.G.Q.Q.G.G.g D { { { { { { ^ I { { { e.w.* ",
"(.(.v { { { { { { { { { { f.G.G.G.G.G.G.Q.G.G.l.g h E G } 9.g ) E b X.{ { { 2.E G.G.G.G.G.# A.G.> { { { { { { { { . { { { { K.{ ",
"(.(.z.{ { { { { { { { { { 4.G.G.G.G.G.G.G.Q.E 1.{ { { M $ p  .q = ] O.2 X.t.# Z G.G.G.G.S.n 3.& % { { { { { { { { y -.{ { { :.J.",
"(.) { { { { { { { { { { { C.' G.G.G.G.G.G.U.2 Y.>.$.& ] j Q.) /.) * a.0 j > g.G.G.G.G.G.G.I.y D { { { { { { { { { { X { { { | J.",
"(.j { { { { { { { { { { { { _ k.M.G.G.G.G.G.g.5.b a - ) W./.j /., > E p & G.G.G.G.G.G.G.G.V.1 [ { { { { { { { { { { ^ L { { | | ",
"(.' | { { { { { { { { { { { b M B.=.G.G.G.G.G.M.Y 9 8 4 4 6 7 +.] ] ] a G.G.G.G.G.G.G.G.G.g.g { { { { { { { { { { { { # { { { w.",
"(.(.9.{ { { { { { { { { { { ` (.x n.=.G.G.G.G.G.G.d.Y +.] ] ] ] ] @.U f.G.G.G.G.G.G.G.G.8., f.<.{ { { { { { { { { { { { & { { { ",
"(.(.J { { { { { { { { { { { { E (.M b.8.G.G.G.G.G.G.G.G.Q.F.I.~.h.A.G.G.G.G.G.G.G.G.G.=., (.(.3 { { { { { { { { { { { { -.Y { { ",
"(.(.* { { { { { { { { { { { { b (.(.j &.M.G.G.G.G.G.G.G.G.G.G.G.G.G.G.G.G.G.G.G.G.G.&.%.k.(.(.f.-.{ { { { { { { { { { { { x.Q { ",
"(.(.3 | { { { { { { g 0.{ { { { E (.(.Y Z.G.G.G.G.G.G.G.G.G.G.G.G.G.G.G.G.G.G.G.G.=.B.n (.(.(.(.* { { { { { { { { { { { { { -.{ ",
"(.(.(.C.{ { { { { { f.Y | { { { b (.(.(._ S.M.G.G.G.G.G.G.G.G.G.G.G.G.G.G.G.G.G.G.o.3 (.(.(.(.(.(.b { { { { { { { { { { { { { { ",
"(.(.(.> { { { { :.0.^.(.4.>.{ >.r.Y (.(.(.' A.V.G.G.G.G.G.G.G.G.G.G.G.G.G.G.G.G.M.3 (.(.(.(.(.(.(.E } { { { { { { { { { { { { { ",
"(.(.(.g w.{ { { r.q.(.(.j i.>.{ >.H (.(.(.(.M _ =.G.G.G.G.G.G.G.G.G.G.G.G.G.G.V.%._ (.(.(.(.(.(.(.(.& { { { { { { { { { { { { { ",
"(.(.(.(.j :.{ { e.P (.(.(.H.{ { { y.3 (.(.(.(.a.2 g.V.G.G.G.G.G.G.G.G.G.G.G.j.S.a.(.(.(.(.(.(.(.(.(.(.# { { { { { { { { { { { { ",
"(.(.(.(.j r.{ { y.P (.(.(.2 u.>.{ ,.<.v.(.(.(.(.(.X B.M.=.M.M.M.G.G.G.G.G.*.G.) (.(.(.(.(.(.(.(.(.(.(.(.2 { { { { { { { { { { { ",
"(.(.(.(.(.> r.{ w.b (.(.(.' L.| { | i.Y (.(.(.(.(.(.x . g W M.G.G.=.G.G.G.j.a.(.(.(.(.(.(.(.(.(.(.(.(.(.(.g { { { { { { { { { { ",
"(.(.(.(.(.E N.| :.j (.(.(.(.g J.:.K.| r.a.(.(.(.(.(.(.(.(.(.> * . g b.W * o (.(.(.(.(.(.(.(.(.(.(.(.(.(.(.(.2 { { { { { { { { { ",
"(.(.(.(.(.(.b N 2 (.(.(.(.(.(.$.T.{ h.x.m.(.(.(.(.(.(.(.(.(.(.(.(.(.(.(.(.(.(.(.(.(.(.(.(.(.(.(.(.(.(.(.(.(.(.j -.{ | >.{ { { { ",
"(.(.(.(.(.(.(.(.(.(.(.(.(.(.(.M H f.(.(.(.(.(.(.(.(.(.(.(.(.(.(.(.(.(.(.(.(.(.(.(.(.(.(.(.(.(.(.(.(.(.(.(.(.(.(.f.h.>.t.i.{ { { ",
"(.(.(.(.(.(.(.(.(.(.(.(.(.(.(.(.(.(.(.(.(.(.(.(.(.(.(.(.(.(.(.(.(.(.(.(.(.(.(.(.(.(.(.(.(.(.(.(.(.(.(.(.(.(.(.(.(.g ) | | y.t.>.",
"(.(.(.(.(.(.(.(.(.(.(.(.(.(.(.(.(.(.(.(.(.(.(.(.(.(.(.(.(.(.(.(.(.(.(.(.(.(.(.(.(.(.(.(.(.(.(.(.(.(.(.(.(.(.(.(.(.(.E 3 >.| r.| ",
"(.(.(.(.(.(.(.(.(.(.(.(.(.(.(.(.(.(.(.(.(.(.(.(.(.(.(.(.(.(.(.(.(.(.(.(.(.(.(.(.(.(.(.(.(.(.(.(.(.(.(.(.(.(.(.(.(.(.(.(.3 ` w.| ",
"(.(.(.(.(.(.(.(.(.(.(.(.(.(.(.(.(.(.(.(.(.(.(.(.(.(.(.(.(.(.(.(.(.(.(.(.(.(.(.(.(.(.(.(.(.(.(.(.(.(.(.(.(.(.(.(.(.(.(.(.(.(.g 4.",
"(.(.(.(.(.(.(.(.(.(.(.(.(.(.(.(.(.(.(.(.(.(.(.(.(.(.(.(.(.(.(.(.(.(.(.(.(.(.(.(.(.(.(.(.(.(.(.(.(.(.(.(.(.(.(.(.(.(.(.(.(.(.(.(.",
"(.(.(.(.(.(.(.(.(.(.(.(.(.(.(.(.(.(.(.(.(.(.(.(.(.(.(.(.(.(.(.(.(.(.(.(.(.(.(.(.(.(.(.(.(.(.(.(.(.(.(.(.(.(.(.(.(.(.(.(.(.(.(.(.",
"(.(.(.(.(.(.(.(.(.(.(.(.(.(.(.(.(.(.(.(.(.(.(.(.(.(.(.(.(.(.(.(.(.(.(.(.(.(.(.(.(.(.(.(.(.(.(.(.(.(.(.(.(.(.(.(.(.(.(.(.(.(.(.(.",
"(.(.(.(.(.(.(.(.(.(.(.(.(.(.(.(.(.(.(.(.(.(.(.(.(.(.(.(.(.(.(.(.(.(.(.(.(.(.(.(.(.(.(.(.(.(.(.(.(.(.(.(.(.(.(.(.(.(.(.(.(.(.(.(."
};
