/* XPM */
static char *result[] = {
/* columns rows colors chars-per-pixel */
"64 64 247 2 ",
"   c #050505",
".  c #090706",
"X  c #0B0A05",
"o  c #07090B",
"O  c #0D0B0B",
"+  c #120E0B",
"@  c #160D08",
"#  c #05120E",
"$  c #14110D",
"%  c #1B130C",
"&  c #1F180F",
"*  c #0B0D12",
"=  c #110F10",
"-  c #061511",
";  c #081916",
":  c #0A1C1A",
">  c #141213",
",  c #1B1513",
"<  c #1C1915",
"1  c #15171A",
"2  c #1A161A",
"3  c #1D1A1C",
"4  c #230D08",
"5  c #22150C",
"6  c #27170D",
"7  c #35190D",
"8  c #241914",
"9  c #241A14",
"0  c #2A1C13",
"q  c #231D1B",
"w  c #361D12",
"e  c #0B231C",
"r  c #13201C",
"t  c #25211A",
"y  c #2C221B",
"u  c #33241B",
"i  c #38261A",
"p  c #0A1D21",
"a  c #1A1A23",
"s  c #231E22",
"d  c #221F28",
"f  c #0C2926",
"g  c #162A29",
"h  c #0F332E",
"j  c #13362E",
"k  c #143A37",
"l  c #252224",
"z  c #2A2523",
"x  c #292829",
"c  c #372B25",
"v  c #3A322A",
"b  c #2E2C32",
"n  c #263537",
"m  c #383435",
"M  c #471911",
"N  c #47291A",
"B  c #57281B",
"V  c #53301C",
"C  c #6E341F",
"Z  c #482D21",
"A  c #463528",
"S  c #573827",
"D  c #56382C",
"F  c #453A36",
"G  c #6C2E2B",
"H  c #663B26",
"J  c #6B3D2A",
"K  c #753929",
"L  c #0F4138",
"P  c #134238",
"I  c #35443B",
"U  c #4E4239",
"Y  c #5A4437",
"T  c #65422B",
"R  c #6C432A",
"E  c #6B422C",
"W  c #72452C",
"Q  c #77492B",
"!  c #694736",
"~  c #6E4935",
"^  c #734532",
"/  c #744A34",
"(  c #7B4A35",
")  c #734E39",
"_  c #7B4D3A",
"`  c #79523C",
"'  c #263D43",
"]  c #473E46",
"[  c #174946",
"{  c #1C544C",
"}  c #1C5B51",
"|  c #2C504F",
" . c #25675B",
".. c #21625D",
"X. c #36615B",
"o. c #266A64",
"O. c #2C746E",
"+. c #494449",
"@. c #505053",
"#. c #6B5348",
"$. c #795845",
"%. c #506B6B",
"&. c #676160",
"*. c #696E72",
"=. c #777979",
"-. c #923727",
";. c #8A4C2D",
":. c #874A37",
">. c #865537",
",. c #925A37",
"<. c #A05534",
"1. c #99663A",
"2. c #865945",
"3. c #965B48",
"4. c #AA5646",
"5. c #8B624C",
"6. c #966449",
"7. c #8A6856",
"8. c #976955",
"9. c #8A715F",
"0. c #96735C",
"q. c #AD6D4A",
"w. c #A66C57",
"e. c #A77359",
"r. c #B67759",
"t. c #8E7B6A",
"y. c #B06E60",
"u. c #AA7965",
"i. c #BB7E68",
"p. c #C67558",
"a. c #C97668",
"s. c #32827C",
"d. c #B9835C",
"f. c #838175",
"g. c #9C8774",
"h. c #A68369",
"j. c #BA8568",
"k. c #A98A72",
"l. c #B68C75",
"z. c #B69271",
"x. c #B9937A",
"c. c #CB875B",
"v. c #C68868",
"b. c #D28A69",
"n. c #C9946A",
"m. c #D6946C",
"M. c #C79777",
"N. c #D79A77",
"B. c #E2996E",
"V. c #D4A075",
"C. c #DBA579",
"Z. c #E5A67B",
"A. c #E9B47D",
"S. c #677889",
"D. c #7B7B85",
"F. c #817E89",
"G. c #358B84",
"H. c #37938B",
"J. c #4B938E",
"K. c #738D98",
"L. c #4DAEAA",
"P. c #4DB7B3",
"I. c #54BBB5",
"U. c #70B7B4",
"Y. c #58C2BD",
"T. c #6FC3BB",
"R. c #6FCDC8",
"E. c #8C8C8B",
"W. c #92928C",
"Q. c #989797",
"!. c #B19A89",
"~. c #ADA296",
"^. c #989CA5",
"/. c #A19EA7",
"(. c #9CA3AA",
"). c #9CA6B2",
"_. c #96B0BA",
"`. c #A5A7A9",
"'. c #B4AEAF",
"]. c #A9ADB5",
"[. c #ABB2B9",
"{. c #B3B5BA",
"}. c #B9B8B8",
"|. c #C49B83",
" X c #D69E84",
".X c #CBA287",
"XX c #D7A785",
"oX c #DBB192",
"OX c #E6AB85",
"+X c #EAB587",
"@X c #F2BA89",
"#X c #EBAD91",
"$X c #EABA96",
"%X c #F2B994",
"&X c #D0BCB1",
"*X c #EFBEA1",
"=X c #83C3BE",
"-X c #F2C18E",
";X c #F4C49B",
":X c #DFCEBC",
">X c #F7CBA6",
",X c #F2CDA9",
"<X c #F9D6B7",
"1X c #A9B7C7",
"2X c #ABBCCD",
"3X c #B6BCC7",
"4X c #A8BDD2",
"5X c #C3BEC8",
"6X c #8FCCCA",
"7X c #BCC1C4",
"8X c #B5C2CD",
"9X c #BDC3CC",
"0X c #A9C4D7",
"qX c #B5C6D5",
"wX c #BBC5D3",
"eX c #B5C7D8",
"rX c #B2CCD9",
"tX c #B4C9DD",
"yX c #BDCBDA",
"uX c #B3CAE0",
"iX c #BAD7E4",
"pX c #C6C5C8",
"aX c #C2C5CD",
"sX c #D3CBCA",
"dX c #C2C6D1",
"fX c #C4CBD4",
"gX c #C7CED8",
"hX c #CED2D7",
"jX c #C5D2DB",
"kX c #CCD3DC",
"lX c #D6D6DA",
"zX c #DEE5DE",
"xX c #FFE3C5",
"cX c #C6D5E4",
"vX c #CAD5E3",
"bX c #C7D9E8",
"nX c #CBDAEA",
"mX c #D2DCEB",
"MX c #D3DEF0",
"NX c #D3E4ED",
"BX c #D8E6F4",
"VX c #E7E9E6",
"CX c #F6F1EE",
"ZX c #F8F3EE",
"AX c #E9F0F3",
"SX c #F9F4F0",
"DX c #FAFCFD",
/* pixels */
"nXlXgX}.}.7X8XrXrX0XuX2X[.E.t.Q.{.3XaX9XwX2X2X].].{.}.dXdXdXdXgXgXkXkXgXgXfXgXfXgXgXgXvXfXbXvXcXvXwXeX4X4X1X^.`.^.{.7X8X[.).^.`.",
"MXvXhX}.7X7X8XrXrX0X0X8X[.W.=.Q.{.7X9XwXwX3X1X1X'.{.}.dXaXwXdXfXgXkXhXgXfXfXfXfXgXgXgXkXyXbXcXcXcX3XeX4X4X1X^.(.Q.].7X3X[.).(.].",
"nXlXhX&X7X7X8X0XrX0XuX8X[.E.f.Q.{.9XfXwXfX2X2X].'.'.}.5X3XdX9XdXfXgXgXgXgXdXfXwXfXfXfXjXyXbXbXcXkX8XqX4X4X1X(.^.`.'.7X3X[.).^.`.",
"nXmXhX7XpX9XwXrXrX0XuX8X[.W.f.Q.{.9XaX9XyX2X3X1X].{.{.5XaXaX3X9XfXfXgXgXfXfXfXdXdXfXfXgXfXbXcXcXcXwXeX4X4X1X).`.`.[.7X{.[.).(.'.",
"nXnXhXpXgXfXyXrXuX0XtX3X[.W.f.W.{.9XaX9XdX2X2X[.'.'.}.7X9X9X9XdXaXfXgXgXfXgXdXdXfXfXfXvXyXbXbXvXcXwXqX0X2X1X).(.`.{.9X7X[.).(.'.",
"nXlXhXpXjXjXyXqXuX4XtXqX[.W.=.Q.{.aX9X9XwX2X2X_.].}.}.7X9X9X3X9XdXpXfXfXfXfXdXaX3XdXfXkXgXbXvXvXvXwXqX2X2X1X(.`.`.{.9X8X_._.^.[.",
"bXkXlXfXfXjXyXrXuX4XeX3X[.W.f.Q.{.aXdXdXwX2X8X[.].}.7XpXaX9X{.9XaXdX5XpXgXdXdXaXdXdXdXcXyXcXbXvXkXwXeX2X2X1X(.(.`.[.aX9X[.(.(.'.",
"nXkXhX9XfXfXqXrXuX0XqX8X[.Q.f.Q.}.aXdXwXgX3X8X).@ $ W.m v 8 5 F +.'.&.`.dXdXdXdXdX5XfXjXyXcXcXcXjXwXqX0X2X1X).(.`.{.fX9X1X).(.[.",
"nXkXhXaXaXyXqXqXuX0XuX3X1XW.t.Q.'.pX9XwXqXc $ $ $ $ $ $ X Y K.! v S u u & $ + & f.3XyXgXyXbXbXjXkXqXqX4X1X1X`.^.`.{.fX9X1X).).[.",
"nXvXhXpXfXfXyXqXuX4XuX3X].Q.t.Q.}.7X9XU v c c u + , X & &.A & $ O > y ! t X i w t i [.fXeXcXcXvXjX8XqX2X1X1X).`.`.3XyXwX8X).(.{.",
"cXkXhXaXfXfXyXrXuX0XuX2X[.W.=.Q.U $ c , &.c u A v U X U ) u #.z X u < t c c $ i i u c *.8XcXcXjXjXwXqX2X4X1X).(.].3XyXwX2X).(.[.",
"bXgXhXpXfXyXyXrXuX4XtX2X[.W.&.m v y U t t v t t y v # y U u X & Y A , % i c & U y A i u m ].cXjXjX8XeX4X1X1X).`.`.7XyX9X8X_.(.[.",
"nXkXkXaXdXfXeXeXuX4X4XqX].Q.t m U v v z t , t $ & X $ u $ 9 9 6 y X y t $ y v i & c U y v E.(.yXjX8XqX8X4X1X).(.`.7XgXyX2X).(.[.",
"cXkXkXpXfXjXyXeXuX4XeXqX].@.v v < t c y v U < X + @ < $ & X 9 % X @ & & t #.c y u i ! 0 t *.e W.kXwXqX0X2X1X(.(.`.3XjXyX8X].(.[.",
"nXgXkXpXfXgXjXeXuX4XeX3XQ.U t @ X X X t c $ & X 5 I , , % & $ $ & 9 @ % & 6 u t t u u v t u K.&.[.{.0X2X2X1X).(.].3XjXwX2X[.^.].",
"bXgXhX5XdXjXyXtXuX4XS.*.b A c y t u 9 9 , < t i Y ) i Z U T i S T T V S y & 6 % % & & t t t $ & 9X*.qX2X2X1X`.`.`.7XgXfX2X].^.`.",
"fXaXaXpXfXgXyXeXrX_.U y t t u 0 < % % 0 9 i $.0.C.XXA.+XA.A.-X-X-X-X-XA.A.B.r.,.V 7 % $ $ % y I {.}.3X{.[.[./.Q.~.[.3X7X'.`.Q.Q.",
"'.&X'.&XpXpXpX8X7X@.< b z $ , , , , y u Y h.;X>X;X-X-X-X;XoX-X<XxX,X;XA.@XA.A.A.A.C.` i A 6 y c W.`.'.`.`.Q.W.E.W.Q.`.].`.(.^.Q.",
"Q.!.Q.~.'.'.'.'.'.t x y y < , < t u ! e.oX;X,X;X-X@X@X>X-X;X$X<X,X,X<XxX-X@X-XA.A.A.A.,.i y & t =.mXmXnXnXbXbXjXvXnXnXnXnXnXnXmX",
"].wXmXNXNXAXBXBX8X< x t 3 , % 0 D T h.V.oX,X-X$X+X+XC.%X-X$X;X$X-X;X-X;X-X-XA.A.-XA.A.C.T 5 % X c BXBXBXNXNXNXNXMXMXmXMXmXmXmXnX",
"nXAXAXDXDXDXDXDX@.t < < t z 9 U 0.x.&XoX.XoXC.Z.OXOXOXZ.Z.OXOXOXoX<XxX<X%X$X@X%XA.-XA.A.d.i & & , ).nXiXiXiXiXiXiXiXiXrX0X8X0X6X",
"NXBXDXDXDXDXDXDX+.9 > < , , i g.x.&XoX.XXXoXC.C.N.@XZ.OX#X+XC.#X-X+X,X,X;X-X-X-X@XA.A.C.V.Q & % $ U 6X=X=XR.6X6X6X6X=XU.U.L.L.J.",
"U._.0XiXMXBXBXqXl - , $ $ < Y k..X.XoX$XV.XXOXC.+XOX@X>X%XC.>X#X>X;X$X,X;X@X@XA.-XA.A.A.C.d.9 $ $ v VXVXVXVXVXVXVXVXzXzXzXzXzXzX",
"J.G.G.G.G.O.o.} x > = O = t Y h.M.!.M..X.XXXoXC.OXOXOXZ.,X;X#X%X$XZ.#XXXB.XXC.OX+XA.A.V.V.n.S & < t ZXSXSXSXZXZXZXZXZXZXZXZXZXZX",
"R.Y.Y.Y.P.P.H.s.g ; a = > 3 U h.x.x.M..XXX.XXXN.M.N.N.C.N.#XZ.N.n.b.r.6.h.N H R / 2.E 6.n.V.d.$ % 8 CXSXSXSXSXSXZXZXZXZXZXZXZXZX",
"Y.Y.P.Y.P.H.H.s.' a 2 > < t U h.x.x..X.XN.M.M.j.0.8.$.5.e.v.i.m.v.3.V N 7 6 0 7 S $.2.2.,.XXn.V + 4 VXZXSXSXSXSXSXSXZXZXZXZXZXZX",
"H.H.H.G.O.....s.I 3 < > = < v t.x.!.!.6.^ S A c q = 0 w B 8.y.i.v.;.H B B H W _ :.>.3.q.6.j.n.j.$ < E.CXSXSXSXSXZXCXCXZXZXZXZXZX",
"o.o.} o.@.X.S.S.J.3 t 2 $ $ A k.x.x.$.Y +.c J D D J G J ^ 3.w.N.N.r.G B M S Z 6 4 6 R M 6.r.n.C.0 % u Q./././.`.'.'.'.'.}.}.7X&X",
"o.} X.D.E.Q.F.D.%.n < 3 $ $ $.z.z.$.#.7.$.2.2.J 7 M B H H 2.y.+X%XZ.C M N #.0 O 6 #.C w.;.d.V.n.u., $ 3 p a 1 p ; * o * X X # o ",
"} P @.E././.^.D.@.| 3 2 > $ 0.x.k.$.7.$.B #.4 . 8 A N J ! ^ w.N.+XZ.b.-.:.K :.w.q.r.r.v.Z.Z.C.+XXXU t 3 a a 1 * * * o * # # # o ",
"L - j %.D.D.S.@.n ' 3 < > , h..X!.0.0.H 4 &.v Z w ! V ^ 2.8.w.v.@X%XB.B.B.v.8.( K :.M.#X@X+XB.A.C.$.z m.B.=X_.L.J.G.O.G.s.s.O.o.",
"e e - - d n p : : ; q $ < t x.!.x.0.` 2.u.0.0.2.2.K $.y.i.a.i.N.#X%XOXB.Z.B.%X%X+X;X>X$X>X@X+XZ.C.n.B ;.-.6XR.Y.Y.I.Y.I.Y.Y.Y.P.",
"L f e - p k I n g : 3 O t q x.x.x.l.l.w.u.( E 3.6.a.a.N.a.|.a.#X*X%X%XZ.B.B.@X@X%X<X<X<XOX@XA.m.m.n.,.d.-.T.T.I.Y.I.Y.Y.L.Y.L.P.",
"P L f ; g n ] | g : 2 + < 2 k.x.l.M..X$X X#XZ.N.Z.#XOXb.y.y.u. XOX#X<XOXZ.OXOX4.4.q.m.B.Z.B.m.Z.V.n.>.c.c.+XI.I.I.L.L.Y.Y.L.P.L.",
"{ P h e ; a j g f l.y.$.q , g.l.x.M.v..XXX#X#XOXN.b.y.3. X%X#Xl.a.y.q.r.4.a.B.<.K -.,.q.r.b.b.m.c.n.Z c.V.C.I.Y.L.L.Y.Y.P.P.L.L.",
"P L f f f ; ; e g -.:.8.5.5.9.k.!.i.!. XN.XXb.M.y.3.:.$.a.a.w.:._ K K G 7 7 K b.q.K G :.,.4.q.q.r.d.A @X-Xx.J.J.H.H.s.H.s.H.s.s.",
"L L h h f f h L [ 4.<.u.:.0.#.u.k.u.l.x.j.j.4.4.-.K 3.3.2.B = s 8 D +.8 6 5 N 7.6.w.V V R ;.;.,.q.d.Y A.;X%.{ } } }  . . . .{ h ",
"e j j j h k [ }  .i.3.i.3..Xc k.l.l.l.w.w.e.8.:.K 2.3.B c u 8 8 @ 6 0 = 6 i i M 7 Y 7 % % V Q 1.1.N Y q.A. .} } }  . . . .L e e ",
"e f f j k L [ { { =.-.r.4.|.A #.h.h.u.7.5.6.:.K ) D D 6 s u D Z B ^ -.y.i.r.v.v.n.6.S 5 @ X ` 1.1.i & d.c. . . . . . .[ g : ; I ",
"- e f f h k L [ [ k i.b..Xj.F U k.0.0.E 5._ E D s s w w 7.8.G G G B B B B M M N 7 M C N i 6 6.Q i S A ) X. . . . .} h : : g W.3X",
"; e f h k | ..o.X.[ ' y.~.a.U ] y u 0.$.5.R i 9 > w $.G M S G $.t.!.2..Xk.k.k.0.Z 4 i.3.V A ` R N i y  .o.o.o...P e - - @.'.{.*.",
": f g g g ' X.O.o...' k  Xy.3.v F A F ! ` $.0 $ Z B 4 O Y g.5./.g.!.!.k.h.7 4.p.p.a.v.j.` 0 V w 6 0 0 o.O.O.{ f - - ; =.}.[.*.n ",
": : f p p p g [ [ [ k h |.y.2.2 u Y v D ) ~ T u D 7.8.K G G G -.G 4.4.a.a.#Xa.4.r.c.n.b.0.T 5 6 y 5 & O. .P ; - - e e Q.sX5X5XwX",
"n g g g a p * p p p p a p n * d y t.c A A i Y $.Y 8.8.8.8.2.3.3.-.-.:.:.:.3.6.e.v.C.n.d.$.N 5 & 0 0  .{ e e > - - ; ; n | | *.3X",
"Q.Q.Q.E.E.F.F.D.=.=.=.*.+.X X z F 5 A 8 #.c Y A i ) 8.6.0.8.0.2.#.Z w D c D >.r.v.V.V.z.) @ 5 & X 9 L ; ; - - - - ; ; ; = : | Q.",
"sXsXpXpX5X5X}.'.}.3X}.@.=       v < @.t v , 6 w c #.8.0.w.8.8.! D D F Z D ^ i.n.n.C.d.z.T % @ 9 < # t I : - - # - - - - * - - = ",
"sX:XsXsXsXsX&X{.&XdXsX= . .     5.F < t $ , < U , 8 #.8.w.w.w.u.8.8.y.i.b.M.N.N.m.OXj.V A t & X   . O > m e # # # # # - - # # - ",
"lXgX9X&XpXhXpX3XpXgXl o . .     6.2.c $ < < v y q d F $.2.0.e.w.y.y.a.i.r.i.N. Xr.d.~ v X & = $ . . O O $ t g - # # - : : # # # ",
"cX8X).Q.1X2XcXtX9X@.> . . .     >.8.5.c < & + + < t < v D 7.) 0.2.5.8.2.2./ S >.>.T 0 @ $ & Q @ o O O O > > > @.- ; : : ; - # - ",
"NXlX9X8X3XcXbXuXcXx + O o .     R ,.$.$.U < & y t $ > $ 9 u A D J Y J ! i V i i t 5 + % u T ;.X O O O > > = O 3 F ; ; : : # # n ",
"CXVXVXzXlXlXvXgXgXl = o o .     S ,./ _ ~ Z U U c c $ < X $ < u x c i 8 i 8 6 & @ + 5 6 N R ;.X O O > > O > > 2 s F : : e - # x ",
"CXCXCXVXlXlXkXhX&.* = o O .     V W ( ` ! S Z Y Y Z v & $ O X X . . @ X X . + X 0 i N N R Q Q X o O > , 3 2 > > = = x : e - # # ",
"VXVXVXVXVXVXVXVXb = O O O O   . V W >.2._ D T D Y A u A i 6 , y 8 < , & t @ & 0 i V H H Q ;.Q X o + > > > 3 2 q 2 3 a F ; ; # # ",
"sXsXsXsXsXlXlXlX+.= = + O . . @ N H _ _ _ J S ! S T S A Y N A 0 Z N Z 7 i 7 V S S H R Q Q >.R X o O > > 2 , 2 , = > = = b : ; - ",
"E.F.=.=.E.W.W./.b , = = O o . @ N B ^ ^ $._ / ! T ! Y Y T Y ! ! Y ! T T T T ~ ~ W R Q Q Q Q %   . O > , 2 2 2 2 2 2 3 q s ] - - ",
"&X&X&X&X&X!.+.&.= l = O = + . 4 w V J ^ ^ _ _ / ~ T ~ ) ~ $.` ` ~ ) T ! ~ / Q Q W T Q Q Q Q +   . O > > 2 2 3 a s s q 2 2 a F ; ",
"&X&X&Xb b b +.+.x 2 2 > o O + 4 6 B S J W ^ _ ^ _ _ ) ~ ! $.$.` ` $.` ` >._ Q W H Q Q Q Q R H X . o + > 1 3 s s s 2 = 2 2 2 2 +.",
"&.d ] d a ] d ] b q q = = O O $ 5 N V J H ^ ^ / _ _ _ ) ) ~ / _ ` ` $.` ( W J H R Q R Q Q Q ;.#   . O = > 2 2 s 2 2 2 2 2 1 3 x ",
"] m ] 2 = d 2 +.2 v = s 1 O O . 5 i V S E ~ ^ ~ ^ ^ / _ ) ~ ` $.) / ` ( W H H R R Q Q Q Q Q ;.&     O > > 2 2 2 2 2 2 s a l 2 > ",
"d b b a > > > d s s 2 x = = = =   0 B S S H E ^ ^ / _ ) E / ) ) ~ ! ! T T R H R Q Q R Q Q 1.,.r     o = > = > 1 2 a s z 3 = > 3 ",
"d d b d > * > 2 s s b d z s > +   . N V S H T T E ^ / / / / ) E ! E T H T H H W R R Q >.,.,.3.a o     * = 2 2 2 q s d q > > 3 l ",
"s d b d 2 o +.= d s m @ 2 > 3 1 =   = Z H J E J H ~ ^ _ ~ ^ ~ E T T E T R R E Q R Q Q >.1.q.D a *   . O 2 2 2 3 s x a = 2 s 3 b ",
"8 d b s * * m t.c 2 s , a 2 3 = > o   * S E J E R J ~ / ~ ! E ! H T E T T E W W Q Q >.1.q.q.a 1 >   o = > 1 a s 3 s 2 2 s s s l ",
"a d s s * &.a > = s b b F 3 , > = + o o * ! ^ R E ^ ^ ~ ( / / E E J E W Q ) Q W Q >.1.q.d.g a a a * o = = > q l d q , 2 d s s s "
};
