/* XPM */
static char *result[] = {
/* columns rows colors chars-per-pixel */
"64 64 247 2 ",
"   c #040403",
".  c #090604",
"X  c #0B0A06",
"o  c #0D0D0B",
"O  c #160C07",
"+  c #120E0B",
"@  c #14110D",
"#  c #1B130C",
"$  c #0A0E10",
"%  c #081716",
"&  c #091C1B",
"*  c #151412",
"=  c #1A1513",
"-  c #1C1915",
";  c #15191A",
":  c #1C1B1B",
">  c #27160C",
",  c #33180C",
"<  c #241B15",
"1  c #271B15",
"2  c #231D1A",
"3  c #0A211E",
"4  c #16201D",
"5  c #29221C",
"6  c #3C2214",
"7  c #34251B",
"8  c #0B1D24",
"9  c #171B26",
"0  c #0C2224",
"q  c #0D2929",
"w  c #172826",
"e  c #0E332A",
"r  c #112F31",
"t  c #0E3233",
"y  c #123737",
"u  c #262626",
"i  c #2B2522",
"p  c #342A23",
"a  c #362B26",
"s  c #3B3129",
"d  c #2E3436",
"f  c #471B11",
"g  c #4B2B15",
"h  c #462718",
"j  c #4D2D1A",
"k  c #532C19",
"l  c #4D311D",
"z  c #53321C",
"x  c #5B341D",
"c  c #67321B",
"v  c #483528",
"b  c #523126",
"n  c #573625",
"m  c #5C3A23",
"M  c #483B33",
"N  c #673B26",
"B  c #6F3D2E",
"V  c #0F403A",
"C  c #13423A",
"Z  c #72441F",
"A  c #574735",
"S  c #574637",
"D  c #6B4227",
"F  c #6C432B",
"G  c #75472A",
"H  c #674735",
"J  c #744B33",
"K  c #784935",
"L  c #795132",
"P  c #7B5239",
"I  c #143C45",
"U  c #293D44",
"Y  c #413E41",
"T  c #174847",
"R  c #184D51",
"E  c #1C5A54",
"W  c #1D5C5F",
"Q  c #38454A",
"!  c #304F53",
"~  c #245858",
"^  c #29665D",
"/  c #2A5D62",
"(  c #276966",
")  c #28726A",
"_  c #336F72",
"`  c #4E5050",
"'  c #675547",
"]  c #69544C",
"[  c #795947",
"{  c #71634F",
"}  c #576361",
"|  c #4A6F73",
" . c #79756A",
".. c #6E6E71",
"X. c #8B3B1D",
"o. c #844B2A",
"O. c #86542C",
"+. c #854B38",
"@. c #974A31",
"#. c #845432",
"$. c #8A5938",
"%. c #945A37",
"&. c #AB5433",
"*. c #986339",
"=. c #A3693C",
"-. c #B5633B",
";. c #844C48",
":. c #875946",
">. c #8C5B43",
",. c #975B47",
"<. c #AC5B4F",
"1. c #8B634A",
"2. c #986646",
"3. c #8B6853",
"4. c #976A54",
"5. c #957455",
"6. c #9A745C",
"7. c #A56C47",
"8. c #A9734A",
"9. c #B3704C",
"0. c #A9765A",
"q. c #B67B57",
"w. c #967768",
"e. c #A87963",
"r. c #B77D62",
"t. c #CC7B51",
"y. c #CA6F63",
"u. c #2F847C",
"i. c #BB835A",
"p. c #898479",
"a. c #BB8768",
"s. c #A98670",
"d. c #B88A75",
"f. c #BC947B",
"g. c #C5875A",
"h. c #D38C59",
"j. c #C78A67",
"k. c #CB9566",
"l. c #CD926C",
"z. c #D6996A",
"x. c #C58D74",
"c. c #CA9676",
"v. c #D59A75",
"b. c #E39C70",
"n. c #DBA16C",
"m. c #DBA475",
"M. c #DDA37B",
"N. c #E4A979",
"B. c #E7AE79",
"V. c #497B82",
"C. c #7A7A85",
"Z. c #817E8F",
"A. c #338B88",
"S. c #3A9897",
"D. c #3BA39D",
"F. c #4B8A8D",
"G. c #78898E",
"H. c #55A49B",
"J. c #4A9EA0",
"K. c #4BAFAD",
"L. c #56BCB9",
"P. c #77B7B8",
"I. c #59C1BD",
"U. c #66BEC0",
"Y. c #59C5C4",
"T. c #6DCDCC",
"R. c #898785",
"E. c #93918C",
"W. c #8E8F94",
"Q. c #989699",
"!. c #B89986",
"~. c #A59996",
"^. c #B4A193",
"/. c #B9A899",
"(. c #888FA0",
"). c #9A9BA6",
"_. c #A29DA8",
"`. c #8FA4AC",
"'. c #9DA6B6",
"]. c #A8A6A9",
"[. c #A9AAB7",
"{. c #B1AEB0",
"}. c #B8B5B9",
"|. c #C59A83",
" X c #D9A785",
".X c #CFA890",
"XX c #E5AC83",
"oX c #EBB484",
"OX c #E9B789",
"+X c #F1BC8A",
"@X c #E7AA9D",
"#X c #EBBB93",
"$X c #F2BD93",
"%X c #C6B6B0",
"&X c #ECC19C",
"*X c #F3C59A",
"=X c #DCC6B7",
"-X c #F3CEAD",
";X c #9FAEC1",
":X c #9CB5CA",
">X c #9DB3CC",
",X c #9DB7D3",
"<X c #A3AEC2",
"1X c #A4B3C5",
"2X c #ABB6C7",
"3X c #A2B4CC",
"4X c #BCBCC3",
"5X c #B3BACA",
"6X c #BABEC9",
"7X c #A5BBD5",
"8X c #AABCD4",
"9X c #B4BFD1",
"0X c #C2BEC3",
"qX c #91CBCF",
"wX c #B7C0C9",
"eX c #BDC1CD",
"rX c #A9C2D9",
"tX c #B3C3D3",
"yX c #BCC5D3",
"uX c #BAC8DA",
"iX c #A2D8DA",
"pX c #9CDEE2",
"aX c #B2CCE3",
"sX c #C2C4CD",
"dX c #C8C5CA",
"fX c #D3C9CA",
"gX c #C2C6D1",
"hX c #C4C9D4",
"jX c #C3CCDC",
"kX c #C9CDDA",
"lX c #CBD0D9",
"zX c #DAD5D9",
"xX c #E8D8D3",
"cX c #CAE3DE",
"vX c #F6E5D0",
"bX c #C4CFE2",
"nX c #C5D1E3",
"mX c #CBD3E3",
"MX c #C3D2EA",
"NX c #CCD7EC",
"BX c #D3E9EB",
"VX c #D8EBFE",
"CX c #E9E5EA",
"ZX c #F5F2ED",
"AX c #E8F6FE",
"SX c #F9F4F0",
"DX c #F7F9FB",
/* pixels */
"mXfX}.=X4XwX2X1XrX,X7X7X5X[.R. .p.].}.eXeXeX9X9X3X<X).].{.{.wXsXwX6XeXyXsXhXhXkXkXhXgXyXgXgXgXgXhXhXjXuXNXMXjXmXeXtX8X,X,X3X'.).",
"mXlX4XwXhXeXwXqXrX,X,X7X2X[.R. .G.].4XwXyXeXuX5X3X<X'.[.{.{.}.sX6X6X6X6XeXgXhXkXhXhXsXsXyXeXgXgXgXgXuXuXaXMXnXmXwX8X8X3X3X3X[.).",
"lXlXwXdXyXyXtX3XrX,X,X7X4X[.R. .R.].}.wXeXeXyX5X>X<X_.[.{.{.6XwXeX4X6XwXeXgXhXkXkXkXgXgXgXeXeXgXhXhXnXuXMXMXnXmXeXtXrX3X,X3X'.).",
"lXlXdXhXlXuXtX:XrX,X,X,X2X[.R. .p.].4XeXwXeXyX5X1X<X).].{.}.0X0X4X4X6X6XeXeXgXgXhXhXgXgXsXeXeXsXhXhXuXuXMXMXnXnXeXtX8X3X3X1X'.).",
"mXlXdXsXkXuXtXrX7X,X,X7X<X[.R.w.R.].4XeX0X9X9X9X1X<X).[.].}.0XeX6X6X6X4XeXeXsXgXhXhXhXgXsXeXeXeXgXhXjXuXMXaXmXmXyX9X8X,X>X1X'.).",
"lXlX4XdXhXyXwXrXrX,X,X8X2X{.R...R.].}.yXjXjX0X9X3X;X'.].{.4XsX6X6X6X4X6XsXeXeXsXgXgXhXsXgXeXeXgXsXyXjXuXMXNXnXmXyX9X8X,X3X3X'.).",
"mXlXdXsXhXtXtXrX7X,X,X8X2X[.R.w.R.[.4XjX0XyXuX9X3X;X'.[.}.}.6XsXeX6X6X6XyX6XeXeXgXgXgXgXgXeXeXsXgXhXjXuXMXMXmXnX6XtXtX3X>X1X'.).",
"lXlXsXsXhXyXtX3XrX,X,X7X2X[.R. .w.].4X0XgXyXuXtX<X<X).).)...` s S ' A } _.{.eXsXeXsXgXgXgXeXeXeXgXgXuXuXaXMXjXkX6X9X8X1X>X1X'.).",
"lXlXdXsXhXtXwXrXrX,X,X7X<X[.E. .R.].}.yX6X).{ s p 7 = s S s 7 S ] S M 5 v s v p 7 R.5XsXyXeXeXeX0XgXbXuXMXMXjXnX6X9XtX>X>X1X'.).",
"lXlXeXsXhXtXtX3X,X,X,X7X2X[.E. .p.W.Q.s i < < * = - 5 @ X : 5 < < S M v M v v p 7 1 > 5 M C.6XeXjX6XjX9XbXaXnXkXeX8XrX3X:X<X[.).",
"lXlXdXsXhXyXtXtXrX,X,X7X2X[.E... .M - 5 5 : 5 2 < a 5 i 7 5 1 < o X 2 = 7 M 7 s 7 1 # 1 < < 5 M 6X0XjX9XaXnXbXmXeX9X8X,X,X3X'.).",
"kXlXeXyXhXyXtX3XrX,X,X7X}.[.E.} ` - @ - = = - - u 5 2 p 5 = * @ s 5 7 O + p p 1 1 s + = < = # - 2 u 2XtXMXbXbXkXwX8X8X3X>X1X'.).",
"nXkXeXsXhXyXtX8X7X7X,X7X<X[.E.M < @ @ @ X . o * i X + = a = - a s @ = = 7 i 2 a < 1 < 1 < = < # = = $ (.uXaXnXjXeX9X8X3X>X3X[.).",
"kXlXdXsXhXuXtX8X,X,X,X3X<X[...` = @ o o o X X .   . - o @ O = = - = # # < = > 1 5 1 # - < = X + < 2 < # C.8XjXkX9X9X8X,X>X;X'.).",
"kXlX}.sXjXuXtX8XrX,X>X3X[.(.} M * o X @ @ o @ @ o @ @ X # 5 = # 1 1 1 1 > > 7 a 1 < # # # @ @ O + + + X = d gXjX6X9X8X3X>X3X'.).",
"jXlX4XsXkXuXuX8XrX,X:X7X2X[.a 1 = - @ = o X @ X + * # > 1 7 H F :.8.r.j.j.f.J J N N D j b 6 1 # + + O $ X + 5XyX4X8X8X>X>X1X;X).",
"gXhX}.sXhXuXuXrXrX7X>X3X<X` : = = = * : + O 1 b b N P >.2.i.z.n.OX#X&X-X-X-X&XOXB.h.=.*.#.x A l > = = . o . } 6X}.5XtX[.:X[.'.).",
"0X%X}.0XhXgXyX9X8X3X>X2X).` : @ $ ; O O 7 [ 4.e.0.i.q.j.v.m.N.N.&XOX*X&XOX&X*XOXB.n.n.n.8.O.Z l , 1 = + @ @ = p.{.{.[.[.].].).E.",
"{..X{.%X6X0X4X}.4X}.[.{._. .= $ $ @ 1 ] r.|.c.l.l.l.l.l.m.z.v.N.B.N.OX Xn.m.oXoXB.n.n.B.N.z.=.O.H a > p @   < G.].[.].].Q.Q.Q.E.",
"E.E.~.~.]./.].~.~.~.~.~.~.} 1 = = M !.|.|.x.l.l.j.l.j.l.l.l.v.v.M.m.m.B.m.B.OXm.B.n.n.n.n.z.g.i.P n p 2 s p 2 ` uXbXMXMXNXMXMXMX",
"1XuXaXMXNXNXMXNXMXMXMXjXaX).i 2 v !.|.f.!.d.l.v.x.j.i.l.v.l.v.v. Xm.OX&X*X*X*X*X+X*XB.n.n.n.h.i.H v M 7 p p p - ,XVXNXNXMXMXMXMX",
"VXAXAXAXDXAXDXAXAXDXAXAXAXC.i i 3.d.|.|.d.x.v.v.N.N.m.v.v.v.v.v.N.&X&X*X*X*X*XoX*XB.B.B.n.z.h.i.D 6 5 M p 2 p p ,XaXaXrXrXiXaXrX",
"VXAXAXDXDXDXDXDXDXDXDXDXDXU i a w.d.f.c..X#X#XoXoXoXoXoX+X$X$XN.&X#X&XB.*X*X&XOX*X*X+X+XB.n.k.k.=., < v s 7 p 7 `.qX`.L.K.L.Y.T.",
"aXMXVXVXAXVXVXAXVXAXAXVXAXs : M 6.d.|. X#X#X#X#XOXOXXX#X#X#X#X#XXXM.M.n.M.M.M.m.B.B.*X*XB.*Xn.n.i.k # 1 < a p a ` cXBXBXcXcXBXNX",
"( _ | | A.V.V.V.V.V.F.V.V.a a v w.f..X X Xm.c.c.k.l.x.v.M. XXXv.v.c.y.x.j.d.i.4.i.4.i.0.q.OXM.m.h.8.> - < p p 5 i ZXZXZXZXZXZXZX",
"K.D.D.D.S.A.u.W ( u.S.S.K.u 9 a s.@X.X Xc.a.s.s.s.0.e.r.a.y.q.r.0.8.7.>.J 6 ' P , 5.^.A J z F v.k.k.N 1 p i p i s SXSXSXSXSXSXSX",
"T.Y.Y.Y.Y.K.S.u.A.K.Y.Y.T.u = i .X|.d.[ vX> l &Xb N K :.%.>.,.%.%.+.K , m A n v A A P L H L G $.0.k.i.7 M 2 2 1 7 =XZXSXSXSXSXSX",
"I.I.I.I.D.S.u.u.A.D.Y.T.T.u 2 h f.h ' ' } 5 d s M S , N B +.vXvXB c b B m z 5 v S A A , N K L 2.8.$.5.v < + 2 1 i } xXSXSXSXSXSX",
"D.S.A.u.) ( ( u.S.S.L.Y.T.d fXvXp.S ' ' ' { { n H S ' < x K l.$Xa.-XH b v i ` = % # 5 7 > h 5 Z G =.k.*.p X # > <.X.&.CXSXSXZXZX",
") ^ E ~ ! ! | V.A.S.J.Y.T.! 2 >  .H { H M w 4 Q : u 1 M N 7.l.z.8.i.K L n H K :.2.2.*.7.i.k.- n.i.z.k.m.s v l *.o.X.X.zXzXzXzXxX",
"E E } ....G.Z.C.V._ u.S.J.] u 1 s.H A A { 3.[ P J m H K x j.B.oXn.H N a.q.y.j.j.4.q.v.OXOX+X4 k.n.B.n.m.G 7 9.*.-.g.@.t.9 9 q 9 ",
"C ^ G._.].'._.W._ I / / / @.a ] s.s.P P G D x L >.>.>.4.K +X$X$XB.B.N b.m.v.v.XX&X#X*XXXOXM.m.n.n.m.m.n.g.A 8.9.b.b.9.&.9 9 9 & ",
"q ` C._._.).(.C.U U ` } } @.{ |.s.|.|.x.c.v.c.v.l.y.r.b  X&X@X-X+XoXz.N ,.q.y.l.v. XXX@Xv.j.l.n.m.k.k.k.i.A v.c -.h.b.t.v 9 8 % ",
"% 9 U ..C.C.C.` U U U ! ! &.M f.|.|. X|. X Xv.y.0.,.M x.@Xv.b.XXXXXXoXoXc X.c ,.<.0.<.6 j.oXB.oXm.k.i.a.k.P n.k.X.@.t.t.rXqXqXP.",
"% % % 8 u r % % 9 ; 8 & 8 ,.e.d.!..X1..X|.d.<.:.c x. X6.,.2.<.,.@.&.j.z.z.9.m m b B K ,.8.c.m.N.z.k.k.i.8.2.z.g.&.-.h.b.pXpXT.T.",
"q % % % 9 u d r 0 % 8 8 8 r.,.d..X X.Xr.4.+.B k B 4.+.f B B B B k k f k c B B B N B K +.,.9.i.k.a.i.i.i.i.i.g.B.B.h.oXb.qXY.Y.U.",
"e e 3 % u Q ` ! d 8 & 8 8 d.@.|.f.f.a.6.:.K c B B [ B b B B H b B B B B @.@.;.+.K B B o.K $.*.8.i.i.i.i.i.i.g.b.B.+X&.N.Y.Y.L.L.",
"V e 3 3 w C ! U r 8 & 3 q |.,.!.s.e.4.:.K c N ;.,.;.,.;.B B B B B B ,.y.b. Xr.@.+.G N N $.#.$.*.=.8.*.i.i.i.B.B.+XB.B.G.U.L.L.L.",
"V e 3 3 % % 3 3 3 3 0 t I x.e.!.6.e.1.:.B k B ;.;.4.4.4.,.+.B ;.9.j. Xl.b.N.j.9.o.K +.F K $.$.%.*.5.8.*.5.i.Z 9.t.y.p.L.L.I.L.K.",
"C e e e 3 % % 3 3 V T R T w..Xx.3.6.3.+.c K ;.[ 1.;.B b b f c c k k k f f f f c +.o.#.2.7.%.O.#.*.*.*.i.*.A A.J.J.J.J.J.J.A.A.A.",
"e e y e 3 3 e C E E W E V e |.f.w.e.1.+.J J B K b , f 3.w.[ ^.;.!.!.!.s.e.x h # + F #.7.8.i.*.#.*.$.*.*.*.U T T ~ ~ ~ ~ R ~ R E ",
"e e y e C C E E W ( E T e 3 0 d w.3.3.1.#.F z , O 9 w.s.^.].^.!.|.!.:., 6.f ;.@.y.0.7.7.=.*.#.L $.$.*.*.1.'.~ ~ ~ ~ ~ ~ ~ ~ ~ ~ ",
"e e y C C C T E E R I I 0 0 q q t w.3.3.1.+.K P H B [ ;.;.<.<.y.y.y.@X@X Xy.l.j.g.q.7.7.*.$.O.L L L L L ` iXH.~ / ~ ~ W W W ^ ^ ",
"w e e t V V V E T I t r q q q t t w.3.3.4.$.P :.,.w.3.;.<.<.y.<.<.<.@.<.9.8.i.j.g.q.q.q.*.#.#.O.O.L Z L G.iXP.^ / / / ( ^ ( ) ^ ",
"8 8 r r y T R E I I I 8 r 8 r r I I 3.:.1.1.$.J 4.w.6.3.;.K +.K +.K K +.,.7.g.t.g.g.i.=.*.O.O.#.L Z m L / :XqXF.( ( ( ( ) ( ) ) ",
"8 9 q r U E _ _ V./ I t t r r r I I / 3.3.3.4.$.;.w.6.,.>.:.>.+.+.,.%.<.q.g.q.g.g.k.i.*.O.*.L Z m x L $.- _ qXP._ ( ) ) ) ) ) E ",
"8 q r r y U ! _ _ / I r I r I I I R R ..[ 3.3.4.6.e.6.4.4.7.y.l.v.XX XXXz.g.M.n.g.g.=.L L G D x z m *.O.. . @ P.F.( _ ) ) ( C 3 ",
"8 8 q 8 8 8 q T R R I I t t I I I R R W ! [ 3.0.e.r.x.x.l.c.j.c.l.z. X$X#XXXz.k.9.=.G Z Z z g g x Z =.*.    X < H.) ) ) ~ e % % ",
"% % % % * % % 8 8 8 8 8 8 0 q q t I I I I R { :.w.e.e.r.q.r.v.q.g.c.g.g.g.9.8.*.Z x x z g g g x Z L =.=.    . = 5 u.( C 3 & @ % ",
"....} ..} ` } ` ` ` ` d d d d w u 9 8 8 r 9 w.] [ 3.3.1.1.$.,.8.2.%.$.L c Z c k g g g g g x x x Z L =.*.      * 7 T q % % % % % ",
"%X%X}.{.{.{.].).)._._._.).).(.W.R.Z.Z.` $ . S 3.[ ' n H H D N N N x x z g 6 6 6 h g g g k g z Z Z *.=.=..     @ 5 2 w % % % % $ ",
"fX0XfX0XfX0X{.{.}.0XdXdX0X0X0X0X0X0X4X@ .   @ 4.:.' H v 6 6 6 7 1 , , , 6 6 6 6 g g z z g x Z Z O.=.=.O.@     - 5 - 5 e % % % $ ",
"0XfXfXfXfXdX{.{.4X0XdXdXfXkXfXdX0XdX: $       2.1.[ H S n j 6 6 6 h 6 6 6 g g g k g g z x D Z L *.-.*.O.Z X   4 : - - 5 y 3 % % ",
"kX0X}.6XsXdXsX}.0XdXfXfXdXdXkXdXdX0X: X       1.1.:.P A H n b l h h 6 h 6 g g g z x x Z D D L *.=.=.*.*.Z X @ 2 * - = - 5 C e % ",
"tX'.G.G.'.rXaXtX2X5X4X0X0X0X0X}.4Xu o         J >.1.:.:.[ P A m z g h h g g z z x x D c G L O.*.=.*.*.*.O.# < - * - - = - d C C ",
"MX5X`.`.1XuXaXiX3X9XhXkXjX0X5X[.[.: X         b 1.$.1.2.4.[ H F m z l l z z x x D D D G $.#.*.*.*.*.O.O.Z < @ @ = - # * - 5 7 p ",
"CXCXzXdXgXjXbXuXbXbXmXNXkXjX9X5X[.$ .         , L P 1.5.0.5.4.H F F F N N D F G G G L $.$.*.*.$.%.*.O.o.* = @ $ @ ; ; * = - i u ",
"DXDXCXCXzXmXkXjXjXbXjXkX9X6X2X<X(.$           > l J :.5.6.0.3.$.:.$.P K L J K J L L #.$.$.*.$.*.%.O.O.= : $ X @ @ @ - - - - - i ",
"ZXCXCXCXNXzXmXzXlXkXgX4X}.{._.^.w.; o         # 6 D L L 1.1.[ 1.[ P P P J J J G F G G L $.L O.O.L Z * - + X . $ @ * = = - * = 5 ",
"ZXCXZXCXCXCXCXCXCXCXzXfXfX=XfX%X%X; $ o       # 1 h F J F J J H J K J F H F D N x Z D D L L O.L G - ; o X . o o @ * @ * * = ; : ",
"hX0XgXdXfXzXzXzXzXxXxXxXvXfX] a a 9 - @ X X X O > , j m N z n m m D D D x m m n x m x x G G D c - * @ . X X $ o o - + o + * * - ",
"........C.Z.Z.E.~.%X].d i i 9 u 9 : ; * # X X O > > 6 z n z b b b v l b n x z l l l A N F D x - - + . .   X X $ o - @ + o * * - ",
"%X%X]..X/./.~.Y u u 5 u : : 9 u 9 = ; = @ + X O > > > 6 j j j l v l l l b j z l z n x x m g * * $ X   . . X o o X o + @ * - - - ",
"=XfX%X%Xd a u u i : 9 : : = 2 9 9 * $ * ; * X + O > > > 7 6 j h l l l b b l z z l z l l g 2 $ X       . $ $ . . .   o * * - = o "
};
